# Blender v2.93.5 OBJ File: ''
# www.blender.org
mtllib radarScan.mtl
o radarCol
v 0.020260 1.960000 0.346041
v 0.000022 0.029931 -0.005326
v 0.020553 1.960000 -0.345649
v -0.020210 1.960000 0.346041
v -0.020508 1.960000 -0.345649
v 0.000022 0.030000 0.005738
vt 0.000000 0.000000
vt 0.000000 0.000000
vt 0.000000 0.000000
vt 0.000000 0.000000
vt 0.000000 0.000000
vt 0.255126 0.620544
vt 0.244860 0.620544
vt 0.244860 0.707005
vt 0.255126 0.707005
vt 0.000000 0.000000
vn 0.9999 -0.0105 0.0001
vn 0.9999 -0.0105 0.0002
vn 0.9999 -0.0106 0.0004
vn -0.9999 -0.0105 0.0001
vn -0.9999 -0.0106 0.0004
vn 0.0000 1.0000 0.0000
vn 0.0000 -0.1736 0.9848
vn 0.0000 -0.1736 -0.9848
vn -0.9999 -0.0105 0.0000
usemtl None
s 1
f 1/1/1 2/2/2 3/3/3
f 4/4/4 5/5/5 2/2/5
f 3/6/6 5/7/6 4/8/6 1/9/6
f 6/10/7 1/1/7 4/4/7
f 2/2/8 5/5/8 3/3/8
f 6/10/1 2/2/2 1/1/1
f 2/2/5 6/10/9 4/4/4
