# Blender v2.93.5 OBJ File: ''
# www.blender.org
mtllib rocket.mtl
o æŸ±ä½“.002
v 0.023221 0.921274 0.044526
v 0.019134 -1.900000 0.046194
v 0.032533 -1.900000 0.038253
v -0.005729 0.925686 0.049885
v -0.013732 -1.900000 0.048302
v 0.005798 -1.900000 0.049880
v -0.048200 0.921274 0.014088
v -0.049880 -1.900000 0.005798
v -0.043865 -1.900000 0.024445
v -0.049944 0.930110 -0.005298
v -0.049039 -1.900000 -0.009755
v 0.005729 0.925686 -0.049885
v -0.009484 1.140678 -0.046421
v 0.004553 1.140294 -0.046941
v 0.017905 1.140677 -0.043866
v 0.031294 1.451275 -0.018067
v 0.032499 1.411268 -0.022155
v 0.024423 1.421314 -0.030094
v 0.029915 1.140726 -0.036452
v 0.024383 0.925686 -0.043895
v 0.039530 1.140678 -0.026118
v 0.035355 0.924423 -0.035355
v 0.046501 1.138158 -0.009250
v 0.044526 0.921274 -0.023221
v 0.035564 1.458119 0.000770
v 0.038504 1.411268 0.008032
v 0.038455 1.417997 -0.007176
v 0.034235 1.421073 0.018220
v 0.046517 1.140677 0.009003
v 0.049885 0.925686 0.005729
v 0.039530 1.140678 0.026118
v 0.044045 0.921274 0.024121
v 0.026303 1.143254 0.039366
v 0.035355 0.924423 0.035355
v 0.009250 1.138158 0.046501
v -0.009003 1.140677 0.046517
v -0.026118 1.140678 0.039530
v -0.019134 0.924423 0.046194
v -0.036452 1.140726 0.029915
v -0.032250 0.921274 0.038493
v -0.043803 1.138158 0.018144
v -0.041573 0.924423 0.027779
v -0.047379 1.140678 0.000245
v -0.028650 1.440768 -0.024908
v -0.036295 1.411857 -0.015034
v -0.035140 1.450288 -0.008631
v -0.045151 1.140294 -0.013623
v -0.039366 1.143255 -0.026303
v -0.043895 0.925686 -0.024383
v -0.026341 1.138158 -0.039422
v -0.031462 0.921274 -0.039140
v -0.014218 0.930111 -0.048169
v 0.049039 0.924423 -0.009755
v 0.027416 1.415954 0.027952
v 0.015132 1.418707 0.036017
v 0.004071 1.421965 0.038533
v 0.009755 0.924423 0.049039
v -0.018634 1.421928 0.033962
v -0.027711 1.415543 0.027642
v -0.039064 1.418947 0.000469
v -0.007314 1.411268 -0.038647
v -0.022262 1.418589 -0.032150
v -0.009032 1.451795 -0.034937
v -0.004639 1.500300 -0.023320
v -0.024571 1.500755 -0.002420
v -0.003221 1.500837 0.024632
v 0.023106 1.500444 0.007009
v 0.016693 1.500080 -0.016693
v 0.024085 1.462796 0.024085
v -0.000880 1.464141 0.034525
v -0.008010 1.415954 0.038325
v -0.028215 1.467125 0.018853
v 0.013698 1.462144 -0.031179
v -0.044695 -1.900000 -0.022892
v -0.032533 -1.900000 -0.038253
v -0.015417 -1.900000 -0.047791
v 0.004045 -1.900000 -0.050053
v 0.022892 -1.900000 -0.044695
v 0.035355 -1.900000 -0.035355
v 0.043865 -1.900000 -0.024445
v 0.049039 -1.900000 -0.009755
v 0.050053 -1.900000 0.004045
v 0.044695 -1.900000 0.022892
v -0.031171 -1.900000 0.039370
v 0.004219 1.421928 -0.038508
v 0.015399 1.415225 -0.036029
v -0.035958 1.418569 0.015351
vt 0.452128 0.298242
vt 0.441690 0.004056
vt 0.494975 0.000000
vt 0.370858 0.314027
vt 0.360846 0.023662
vt 0.400759 0.010438
vt 0.128958 0.663350
vt 0.106821 0.365898
vt 0.178532 0.367392
vt 0.059959 0.666042
vt 0.054259 0.368956
vt 0.548044 0.430760
vt 0.491587 0.406289
vt 0.543037 0.405812
vt 0.591328 0.402145
vt 0.763934 0.639768
vt 0.748914 0.644259
vt 0.719819 0.614683
vt 0.633923 0.394794
vt 0.615204 0.424205
vt 0.667222 0.385056
vt 0.653795 0.416075
vt 0.659183 0.336158
vt 0.695072 0.322430
vt 0.691736 0.350206
vt 0.832959 0.655349
vt 0.859512 0.666175
vt 0.803813 0.666025
vt 0.896828 0.650496
vt 0.606823 0.326267
vt 0.624162 0.303413
vt 0.541796 0.321170
vt 0.558087 0.296420
vt 0.473666 0.322439
vt 0.506061 0.295999
vt 0.414383 0.328719
vt 0.372800 0.340513
vt 0.243299 0.698717
vt 0.275558 0.679997
vt 0.288549 0.710194
vt 0.197377 0.692639
vt 0.232801 0.671238
vt 0.147720 0.688815
vt 0.184330 0.666402
vt 0.081600 0.689262
vt 0.738671 0.420237
vt 0.774780 0.392255
vt 0.798284 0.396405
vt 0.036558 0.693033
vt 0.000000 0.699584
vt 0.001672 0.673012
vt 0.428641 0.401574
vt 0.410024 0.424364
vt 0.378596 0.390423
vt 0.474746 0.430175
vt 0.685143 0.405110
vt 0.666684 0.312422
vt 0.552055 0.358311
vt 0.508608 0.356675
vt 0.457498 0.360247
vt 1.000000 0.559358
vt 0.961957 0.580480
vt 0.971141 0.539953
vt 0.408523 0.304577
vt 0.304857 0.689398
vt 0.974355 0.429823
vt 0.954325 0.456799
vt 0.931136 0.423580
vt 0.831568 0.382059
vt 0.733160 0.381466
vt 0.361845 0.411804
vt 0.688377 0.498469
vt 0.712136 0.443688
vt 0.702008 0.492101
vt 0.744635 0.508086
vt 0.821131 0.435022
vt 0.920292 0.513154
vt 0.855824 0.609635
vt 0.768980 0.586206
vt 0.918333 0.613236
vt 0.932450 0.625502
vt 0.956496 0.521763
vt 0.970333 0.495714
vt 0.899002 0.421671
vt 0.715862 0.575335
vt 0.310501 0.053880
vt 0.343450 0.100460
vt 0.360846 0.148069
vt 0.360846 0.219846
vt 0.333378 0.286159
vt 0.282624 0.336913
vt 0.216311 0.364381
vt 0.159276 0.365898
vt 0.110025 0.353913
vt 0.061759 0.323487
vt 0.027468 0.286159
vt 0.000000 0.219846
vt 0.000000 0.148069
vt 0.020425 0.094795
vt 0.050345 0.053880
vt 0.110025 0.014003
vt 0.180423 0.000000
vt 0.250821 0.014003
vt 0.612091 0.720526
vt 0.544111 0.726540
vt 0.655993 0.711458
vt 0.685143 0.701284
vt 0.670339 0.016250
vt 0.700731 0.027686
vt 0.633037 0.007939
vt 0.566746 0.000850
vt 0.245676 0.374375
vt 0.298032 0.385785
vt 0.014354 0.374208
vt 0.408139 0.718713
vt 0.360846 0.706064
vt 0.472493 0.725903
vt 0.540063 0.368974
vt 0.580521 0.366722
vt 0.497899 0.371011
vt 0.612455 0.360247
vt 0.698043 0.581652
vt 0.688935 0.540697
vt 0.696206 0.635267
vt 0.734090 0.670459
vt 0.795900 0.695953
vt 0.862763 0.695957
vt 0.591025 0.360247
vt 1.000000 0.492498
vt 0.199524 0.728398
vt 0.146952 0.724587
vt 0.091817 0.724680
vt 0.041831 0.728398
vt 0.685143 0.429218
vt 0.779588 0.360247
vt 0.442023 0.365576
vt 0.886091 0.393399
vn 0.4619 0.0158 0.8868
vn 0.3821 -0.0328 0.9235
vn 0.6471 -0.0327 0.7617
vn -0.1139 0.0159 0.9934
vn -0.2730 -0.0326 0.9615
vn 0.1152 -0.0327 0.9928
vn -0.9596 0.0159 0.2808
vn -0.9928 -0.0327 0.1155
vn -0.8728 -0.0327 0.4870
vn -0.9943 0.0160 -0.1056
vn -0.9802 -0.0328 -0.1952
vn 0.1139 0.0159 -0.9934
vn -0.1999 0.0208 -0.9796
vn 0.0964 0.0209 -0.9951
vn 0.3774 0.0208 -0.9258
vn 0.8653 0.0347 -0.5001
vn 0.8255 0.0310 -0.5635
vn 0.6294 0.0317 -0.7764
vn 0.6338 0.0209 -0.7732
vn 0.4851 0.0159 -0.8743
vn 0.3775 0.0208 -0.9258
vn 0.8339 0.0208 -0.5516
vn 0.7066 0.0160 -0.7074
vn 0.9805 0.0208 -0.1953
vn 0.8863 0.0159 -0.4628
vn 0.8338 0.0208 -0.5516
vn 0.9991 0.0354 0.0217
vn 0.9784 0.0310 0.2043
vn 0.9825 0.0313 -0.1835
vn 0.8821 0.0317 0.4700
vn 0.9815 0.0208 0.1902
vn 0.9933 0.0159 0.1142
vn 0.8339 0.0208 0.5516
vn 0.8767 0.0159 0.4807
vn 0.5550 0.0209 0.8316
vn 0.7066 0.0160 0.7074
vn 0.1948 0.0207 0.9806
vn -0.1898 0.0208 0.9816
vn -0.1140 0.0159 0.9934
vn -0.5507 0.0208 0.8344
vn -0.3822 0.0160 0.9239
vn -0.7725 0.0209 0.6347
vn -0.6417 0.0158 0.7668
vn -0.5507 0.0208 0.8345
vn -0.9235 0.0207 0.3830
vn -0.8311 0.0160 0.5560
vn -0.9998 0.0208 0.0052
vn -0.9235 0.0208 0.3830
vn -0.7539 0.0328 -0.6562
vn -0.9233 0.0310 -0.3829
vn -0.9705 0.0346 -0.2386
vn -0.9571 0.0209 -0.2891
vn -0.8310 0.0209 -0.5559
vn -0.8738 0.0159 -0.4860
vn -0.5550 0.0207 -0.8316
vn -0.6260 0.0159 -0.7797
vn -0.2828 0.0160 -0.9591
vn 0.8256 0.0310 -0.5635
vn 0.9806 0.0160 -0.1953
vn 0.8767 0.0158 0.4807
vn 0.8338 0.0208 0.5516
vn 0.6995 0.0312 0.7140
vn 0.3868 0.0314 0.9216
vn 0.1949 0.0207 0.9806
vn 0.3868 0.0313 0.9216
vn 0.1049 0.0317 0.9940
vn 0.1949 0.0160 0.9807
vn -0.1897 0.0208 0.9816
vn -0.3823 0.0160 0.9239
vn -0.4804 0.0317 0.8765
vn -0.7072 0.0312 0.7063
vn -0.6417 0.0159 0.7668
vn -0.8310 0.0160 0.5560
vn -0.9233 0.0311 -0.3829
vn -0.9994 0.0314 0.0120
vn -0.9705 0.0346 -0.2387
vn -0.8310 0.0208 -0.5559
vn -0.6260 0.0158 -0.7797
vn -0.1857 0.0310 -0.9821
vn -0.5685 0.0313 -0.8221
vn -0.2498 0.0347 -0.9677
vn -0.1701 0.4413 -0.8811
vn -0.8838 0.4586 -0.0929
vn -0.1114 0.4634 0.8791
vn 0.8584 0.4456 0.2543
vn 0.6354 0.4363 -0.6371
vn 0.7062 0.0371 0.7070
vn -0.0254 0.0366 0.9990
vn 0.3867 0.0314 0.9217
vn -0.2043 0.0312 0.9784
vn -0.8306 0.0373 0.5556
vn -0.2499 0.0347 -0.9677
vn 0.7053 0.0547 -0.7068
vn 0.4016 0.0371 -0.9151
vn 0.9555 0.0536 0.2902
vn 0.9991 0.0354 0.0216
vn 0.7056 0.0548 -0.7065
vn -0.1294 0.0521 0.9902
vn -0.8306 0.0373 0.5557
vn -0.1946 0.0544 -0.9794
vn -0.9938 0.0525 -0.0980
vn -0.8866 -0.4509 0.1032
vn -0.8754 -0.4509 -0.1744
vn -0.7943 -0.4509 -0.4073
vn -0.5779 -0.4509 -0.6803
vn -0.2737 -0.4509 -0.8496
vn 0.0719 -0.4509 -0.8897
vn 0.4065 -0.4509 -0.7947
vn 0.6308 -0.4509 -0.6315
vn 0.7795 -0.4509 -0.4349
vn 0.8754 -0.4509 -0.1743
vn 0.8897 -0.4509 0.0720
vn 0.7943 -0.4509 0.4073
vn 0.5779 -0.4509 0.6803
vn 0.3413 -0.4509 0.8248
vn 0.1029 -0.4509 0.8866
vn -0.2439 -0.4509 0.8586
vn -0.5536 -0.4509 0.7001
vn -0.7795 -0.4509 0.4349
vn 0.4552 -0.0327 -0.8898
vn 0.0804 -0.0327 -0.9962
vn 0.7063 -0.0328 -0.7072
vn 0.8728 -0.0327 -0.4870
vn 0.7063 -0.0328 -0.7071
vn 0.9802 -0.0328 -0.1952
vn 0.9962 -0.0327 0.0806
vn 0.8894 -0.0327 0.4560
vn 0.1152 -0.0326 0.9928
vn 0.4619 0.0159 0.8868
vn -0.6200 -0.0327 0.7839
vn -0.2730 -0.0327 0.9615
vn 0.1153 -0.0326 0.9928
vn -0.6199 -0.0327 0.7840
vn -0.8894 -0.0327 -0.4560
vn -0.6471 -0.0327 -0.7617
vn -0.8893 -0.0327 -0.4561
vn -0.3065 -0.0327 -0.9513
vn -0.2827 0.0160 -0.9591
vn 0.1087 0.0317 -0.9936
vn 0.3924 0.0312 -0.9193
vn 0.3924 0.0312 -0.9192
vn 0.4016 0.0370 -0.9151
vn 0.8256 0.0310 -0.5634
vn 0.9825 0.0313 -0.1836
vn 0.9784 0.0310 0.2044
vn 0.9805 0.0207 -0.1953
vn -0.2042 0.0312 0.9784
vn 0.1948 0.0160 0.9807
vn -0.9191 0.0313 0.3928
vn -0.9191 0.0314 0.3928
vn -0.5686 0.0313 -0.8221
vn -0.0255 0.0366 0.9990
vn -0.4803 0.0317 0.8765
vn -0.8306 0.0374 0.5556
vn -0.3065 -0.0326 -0.9513
vn 0.1140 0.0159 -0.9934
vn -0.1856 0.0310 -0.9821
vn 0.7056 0.0549 -0.7065
vn 0.8652 0.0347 -0.5001
vn 0.7062 0.0371 0.7071
vn -0.1293 0.0521 0.9902
vn -0.7539 0.0327 -0.6562
usemtl æè´¨.002
s 1
f 1/1/1 2/2/2 3/3/3
f 4/4/4 5/5/5 6/6/6
f 7/7/7 8/8/8 9/9/9
f 10/10/10 11/11/11 8/8/8
f 12/12/12 13/13/13 14/14/14
f 15/15/15 12/12/12 14/14/14
f 16/16/16 17/17/17 18/18/18
f 19/19/19 20/20/20 15/15/21
f 21/21/22 22/22/23 19/19/19
f 23/23/24 24/24/25 21/25/26
f 25/26/27 26/27/28 27/28/29
f 28/29/30 26/27/28 25/26/27
f 29/30/31 30/31/32 23/23/24
f 31/32/33 32/33/34 29/30/31
f 33/34/35 34/35/36 31/32/33
f 35/36/37 1/1/1 33/34/35
f 36/37/38 4/4/39 35/36/37
f 37/38/40 38/39/41 36/40/38
f 39/41/42 40/42/43 37/38/44
f 41/43/45 42/44/46 39/41/42
f 43/45/47 7/7/7 41/43/48
f 44/46/49 45/47/50 46/48/51
f 47/49/52 10/10/10 43/45/47
f 48/50/53 49/51/54 47/49/52
f 50/52/55 51/53/56 48/54/53
f 13/13/13 52/55/57 50/52/55
f 12/12/12 15/15/21 20/20/20
f 20/20/20 19/19/19 22/22/23
f 22/22/23 21/21/26 24/56/25
f 27/28/29 17/17/58 16/16/16
f 53/57/59 23/23/24 30/31/32
f 30/31/32 29/30/31 32/33/60
f 31/32/61 28/58/30 54/59/62
f 33/34/35 54/59/62 55/60/63
f 34/35/36 33/34/35 1/1/1
f 35/61/64 55/62/65 56/63/66
f 57/64/67 35/36/64 4/4/4
f 4/65/4 36/40/68 38/39/69
f 37/66/44 58/67/70 59/68/71
f 38/39/41 37/38/40 40/42/72
f 42/44/73 41/43/45 7/7/7
f 10/10/10 47/49/52 49/51/54
f 45/47/74 60/69/75 46/48/76
f 44/46/49 48/70/77 45/47/74
f 49/71/54 48/54/53 51/53/78
f 61/72/79 62/73/80 63/74/81
f 52/55/57 13/13/13 12/12/12
f 64/75/82 65/76/83 66/77/84 67/78/85 68/79/86
f 69/80/87 28/29/30 25/26/27
f 69/80/87 54/81/62 28/29/30
f 70/82/88 56/63/66 55/62/89
f 70/82/88 71/83/90 56/63/66
f 46/48/76 60/69/75 72/84/91
f 44/46/49 63/74/92 62/73/80
f 68/79/93 16/16/16 73/85/94
f 67/78/95 25/26/96 68/79/97
f 67/78/95 69/80/87 25/26/96
f 66/77/98 72/84/99 70/82/88
f 64/75/100 44/46/49 65/76/101
f 8/86/102 11/87/103 74/88/104 75/89/105 76/90/106 77/91/107 78/92/108 79/93/109 80/94/110 81/95/111 82/96/112 83/97/113 3/98/114 2/99/115 6/100/116 5/101/117 84/102/118 9/103/119
f 78/104/120 77/105/121 12/12/12 20/20/20
f 79/106/122 78/104/120 20/20/20 22/22/23
f 80/107/123 79/106/124 22/22/23 24/56/25
f 81/108/125 80/109/123 24/24/25 53/57/59
f 82/110/126 81/108/125 53/57/59 30/31/32
f 83/111/127 82/110/126 30/31/32 32/33/34
f 3/3/3 83/111/127 32/33/34 34/35/36
f 6/6/128 2/2/2 1/1/129 57/64/67
f 34/35/36 1/1/1 3/3/3
f 84/112/130 5/113/131 38/39/69 40/42/43
f 57/64/67 4/4/4 6/6/132
f 4/65/4 38/39/69 5/113/131
f 9/9/9 84/112/133 40/42/43 42/44/46
f 74/114/134 11/11/11 10/10/10 49/51/54
f 42/44/73 7/7/7 9/9/9
f 7/7/7 10/10/10 8/8/8
f 75/115/135 74/116/136 49/71/54 51/53/78
f 76/117/137 75/115/135 51/53/56 52/55/138
f 85/118/139 86/119/140 15/15/21 14/14/14
f 14/14/14 13/13/13 61/120/79 85/118/139
f 86/119/141 18/121/18 19/19/19 15/15/15
f 73/85/142 86/122/140 85/123/139
f 19/124/19 18/18/18 17/17/58 21/125/22
f 21/125/26 17/17/143 27/28/144 23/126/24
f 27/28/144 26/27/145 29/127/31 23/126/24
f 53/57/59 24/24/25 23/23/146
f 26/128/145 28/58/30 31/32/33 29/30/31
f 56/63/66 71/83/147 36/129/68 35/61/64
f 33/34/35 31/32/33 54/59/62
f 34/35/36 32/33/34 31/32/33
f 55/60/63 35/36/37 33/34/35
f 57/64/148 1/1/129 35/36/37
f 71/83/90 58/67/70 37/66/40 36/129/38
f 39/41/42 59/130/71 87/131/149 41/43/48
f 39/41/42 37/38/44 59/130/71
f 87/131/150 60/132/75 43/45/47 41/43/48
f 42/44/73 40/42/43 39/41/42
f 60/132/75 45/133/50 47/49/52 43/45/47
f 10/10/10 7/7/7 43/45/47
f 48/70/53 44/46/49 62/73/80 50/134/55
f 48/70/53 47/135/52 45/47/74
f 62/136/151 61/120/79 13/13/13 50/52/55
f 52/55/138 51/53/56 50/52/55
f 73/85/94 18/18/18 86/122/141
f 73/85/142 16/16/16 18/18/18
f 25/26/96 27/28/144 16/16/16
f 69/80/87 55/62/63 54/81/62
f 69/80/87 70/82/88 55/62/65
f 70/82/152 58/67/153 71/83/90
f 70/82/88 72/84/91 58/67/153
f 72/84/91 59/68/71 58/67/153
f 72/84/91 87/137/150 59/68/71
f 72/84/154 60/69/75 87/137/150
f 77/105/121 76/117/155 52/55/138 12/12/156
f 63/74/81 73/85/94 85/123/139
f 63/74/92 85/123/139 61/72/157
f 64/75/100 73/85/142 63/74/92
f 64/75/100 68/79/97 73/85/142
f 68/79/158 25/26/27 16/16/159
f 67/78/95 66/77/98 69/80/160
f 66/77/161 70/82/88 69/80/87
f 66/77/161 65/76/101 72/84/99
f 65/76/101 46/48/76 72/84/154
f 65/76/101 44/46/49 46/48/76
f 64/75/100 63/74/92 44/46/162
