# Blender v2.93.5 OBJ File: ''
# www.blender.org
mtllib ConeScan.mtl
o cone.001
v -0.620652 -0.358333 -1.000000
v 0.000000 -0.050000 -0.000000
v -0.043301 -0.025000 -0.000000
v 0.000000 -0.716667 -1.000000
v -0.043301 -0.025000 -0.000000
v -0.620652 0.358333 -1.000000
v -0.620652 -0.358333 -1.000000
v -0.043301 0.025000 0.000000
v 0.000000 0.050000 0.000000
v 0.000000 0.716667 -1.000000
v -0.620652 0.358333 -1.000000
v -0.043301 0.025000 0.000000
v 0.000000 0.050000 0.000000
v 0.620652 0.358333 -1.000000
v 0.000000 0.716667 -1.000000
v 0.043301 0.025000 0.000000
v 0.620652 0.358333 -1.000000
v 0.043301 0.025000 0.000000
v 0.043301 -0.025000 -0.000000
v 0.620652 -0.358333 -1.000000
v 0.620652 -0.358333 -1.000000
v 0.043301 -0.025000 -0.000000
v 0.000000 -0.050000 -0.000000
v 0.000000 -0.716667 -1.000000
v 0.620652 0.358333 -1.000000
v -0.620652 0.358333 -1.000000
v 0.000000 0.716667 -1.000000
v 0.000000 -0.716667 -1.000000
v -0.620652 -0.358333 -1.000000
v 0.620652 -0.358333 -1.000000
v 0.043301 0.025000 0.000000
v 0.000000 0.050000 0.000000
v -0.043301 0.025000 0.000000
v -0.043301 -0.025000 -0.000000
v 0.043301 -0.025000 -0.000000
v 0.000000 -0.050000 -0.000000
vn -0.4330 -0.7500 0.5000
vn -0.8660 -0.0000 0.5000
vn -0.4330 0.7500 0.5000
vn 0.4330 0.7500 0.5000
vn 0.8660 0.0000 0.5000
vn 0.4330 -0.7500 0.5000
vn 0.0000 0.0000 -1.0000
vn 0.0000 -0.0000 1.0000
usemtl mat_1
s 1
f 1//1 2//1 3//1
f 4//1 2//1 1//1
f 5//2 6//2 7//2
f 8//2 6//2 5//2
f 9//3 10//3 11//3
f 9//3 11//3 12//3
f 13//4 14//4 15//4
f 16//4 14//4 13//4
f 17//5 18//5 19//5
f 17//5 19//5 20//5
f 21//6 22//6 23//6
f 21//6 23//6 24//6
f 25//7 26//7 27//7
f 28//7 29//7 26//7
f 28//7 26//7 25//7
f 30//7 28//7 25//7
f 31//8 32//8 33//8
f 31//8 33//8 34//8
f 35//8 34//8 36//8
f 35//8 31//8 34//8
