# Exported by Open CASCADE Technology [dev.opencascade.org]
#  Vertices: 36
#     Faces: 20
# Author:
# Originating system: SolidWorks 2021
# Organization:
# Comments: STEP AP214
mtllib cone.mtl
g cone
usemtl mat_1
v 0.000000 -50.000000 0.000000
v -43.301270 -25.000000 0.000000
v -620.651550 -358.333344 -1000.000000
v 0.000000 -716.666687 -1000.000000
vn -0.433013 -0.750000 0.500000
vn -0.433013 -0.750000 0.500000
vn -0.433013 -0.750000 0.500000
vn -0.433013 -0.750000 0.500000
f 3//3 1//1 2//2
f 4//4 1//1 3//3
v -43.301270 -25.000000 0.000000
v -43.301270 25.000000 0.000000
v -620.651550 358.333344 -1000.000000
v -620.651550 -358.333344 -1000.000000
vn -0.866025 -0.000000 0.500000
vn -0.866025 -0.000000 0.500000
vn -0.866025 -0.000000 0.500000
vn -0.866025 -0.000000 0.500000
f 5//5 7//7 8//8
f 6//6 7//7 5//5
v -43.301270 25.000000 0.000000
v -0.000000 50.000000 0.000000
v -0.000000 716.666687 -1000.000000
v -620.651550 358.333344 -1000.000000
vn -0.433013 0.750000 0.500000
vn -0.433013 0.750000 0.500000
vn -0.433013 0.750000 0.500000
vn -0.433013 0.750000 0.500000
f 10//10 11//11 12//12
f 10//10 12//12 9//9
v -0.000000 50.000000 0.000000
v 43.301270 25.000000 0.000000
v 620.651550 358.333344 -1000.000000
v -0.000000 716.666687 -1000.000000
vn 0.433013 0.750000 0.500000
vn 0.433013 0.750000 0.500000
vn 0.433013 0.750000 0.500000
vn 0.433013 0.750000 0.500000
f 13//13 15//15 16//16
f 14//14 15//15 13//13
v 43.301270 25.000000 0.000000
v 43.301270 -25.000000 0.000000
v 620.651550 -358.333344 -1000.000000
v 620.651550 358.333344 -1000.000000
vn 0.866025 0.000000 0.500000
vn 0.866025 0.000000 0.500000
vn 0.866025 0.000000 0.500000
vn 0.866025 0.000000 0.500000
f 20//20 17//17 18//18
f 20//20 18//18 19//19
v 43.301270 -25.000000 0.000000
v 0.000000 -50.000000 0.000000
v 0.000000 -716.666687 -1000.000000
v 620.651550 -358.333344 -1000.000000
vn 0.433013 -0.750000 0.500000
vn 0.433013 -0.750000 0.500000
vn 0.433013 -0.750000 0.500000
vn 0.433013 -0.750000 0.500000
f 24//24 21//21 22//22
f 24//24 22//22 23//23
v 620.651550 -358.333344 -1000.000000
v 0.000000 -716.666687 -1000.000000
v 620.651550 358.333344 -1000.000000
v -0.000000 716.666687 -1000.000000
v -620.651550 358.333344 -1000.000000
v -620.651550 -358.333344 -1000.000000
vn 0.000000 0.000000 -1.000000
vn 0.000000 0.000000 -1.000000
vn 0.000000 0.000000 -1.000000
vn 0.000000 0.000000 -1.000000
vn 0.000000 0.000000 -1.000000
vn 0.000000 0.000000 -1.000000
f 27//27 29//29 28//28
f 26//26 30//30 29//29
f 26//26 29//29 27//27
f 25//25 26//26 27//27
v 0.000000 -50.000000 0.000000
v -43.301270 -25.000000 0.000000
v 43.301270 -25.000000 0.000000
v 43.301270 25.000000 0.000000
v -0.000000 50.000000 0.000000
v -43.301270 25.000000 0.000000
vn 0.000000 0.000000 1.000000
vn 0.000000 0.000000 1.000000
vn 0.000000 0.000000 1.000000
vn 0.000000 0.000000 1.000000
vn 0.000000 0.000000 1.000000
vn 0.000000 0.000000 1.000000
f 34//34 35//35 36//36
f 34//34 36//36 32//32
f 33//33 32//32 31//31
f 33//33 34//34 32//32
